Coordinates
version=1
nRows=65
nColumns=12
inDegrees=yes

Units are S.I. units (second, meters, Newtons, ...)
Angles are in degrees

endheader
time	SC_y	SC_z	SC_x	AC_y	AC_z	AC_x	GH_y	GH_z	GH_yy	EL_x	PS_y
       0.0              -41.41          35.98          57.44          52.82         -4.194        -0.2373         -173.8         -8.678         -125.2          16.54          123.2
   0.02966              -41.41          35.98          57.44          52.82         -4.196         -0.237         -173.8         -8.665         -125.2          16.54          123.2
   0.05931              -41.41          35.97          57.44          52.82         -4.198        -0.2366         -173.8          -8.65         -125.2          16.55          123.2
   0.08897               -41.4          35.97          57.45          52.82           -4.2        -0.2362         -173.8         -8.635         -125.1          16.55          123.2
    0.1186               -41.4          35.96          57.45          52.82         -4.203        -0.2358         -173.8         -8.618         -125.1          16.56          123.2
    0.1483              -41.39          35.95          57.45          52.82         -4.205        -0.2353         -173.8         -8.601         -125.1          16.57          123.1
    0.1779              -41.39          35.95          57.46          52.82         -4.208        -0.2348         -173.7         -8.582         -125.1          16.57          123.1
    0.2076              -41.39          35.94          57.46          52.82         -4.211        -0.2343         -173.7         -8.562         -125.0          16.58          123.1
    0.2373              -41.38          35.93          57.46          52.82         -4.215        -0.2337         -173.7         -8.541         -125.0          16.59          123.1
    0.2669              -41.37          35.92          57.47          52.82         -4.218        -0.2331         -173.7         -8.518         -125.0           16.6          123.1
    0.2966              -41.37          35.92          57.47          52.82         -4.222        -0.2325         -173.6         -8.494         -124.9           16.6          123.1
    0.3262              -41.36          35.91          57.48          52.82         -4.226        -0.2318         -173.6         -8.467         -124.9          16.61          123.0
    0.3559              -41.36           35.9          57.48          52.82          -4.23        -0.2311         -173.6         -8.439         -124.9          16.62          123.0
    0.3855              -41.35          35.88          57.49          52.82         -4.235        -0.2303         -173.5         -8.408         -124.8          16.63          123.0
    0.4152              -41.34          35.87           57.5          52.82          -4.24        -0.2294         -173.5         -8.374         -124.8          16.65          123.0
    0.4448              -41.33          35.86           57.5          52.83         -4.246        -0.2284         -173.4         -8.338         -124.7          16.66          122.9
    0.4745              -41.32          35.85          57.51          52.83         -4.252        -0.2274         -173.4         -8.299         -124.7          16.67          122.9
    0.5042              -41.31          35.83          57.52          52.83         -4.258        -0.2263         -173.3         -8.256         -124.6          16.69          122.9
    0.5338               -41.3          35.81          57.53          52.83         -4.266         -0.225         -173.3         -8.209         -124.5           16.7          122.8
    0.5635              -41.29          35.79          57.54          52.83         -4.274        -0.2237         -173.2         -8.158         -124.5          16.72          122.8
    0.5931              -41.27          35.77          57.55          52.83         -4.282        -0.2222         -173.1         -8.102         -124.4          16.74          122.8
    0.6228              -41.26          35.75          57.56          52.83         -4.292        -0.2206         -173.1          -8.04         -124.3          16.76          122.7
    0.6524              -41.24          35.73          57.57          52.84         -4.302        -0.2188         -173.0         -7.972         -124.2          16.79          122.7
    0.6821              -41.22           35.7          57.58          52.84         -4.314        -0.2168         -172.9         -7.896         -124.1          16.82          122.6
    0.7118               -41.2          35.67           57.6          52.84         -4.327        -0.2146         -172.8         -7.812         -124.0          16.85          122.5
    0.7414              -41.18          35.63          57.62          52.84         -4.341        -0.2122         -172.7         -7.718         -123.9          16.88          122.5
    0.7711              -41.15           35.6          57.64          52.84         -4.357        -0.2094         -172.5         -7.613         -123.7          16.92          122.4
    0.8007              -41.13          35.55          57.66          52.85         -4.376        -0.2063         -172.4         -7.494         -123.5          16.96          122.3
    0.8304              -41.09           35.5          57.68          52.85         -4.396        -0.2028         -172.2         -7.361         -123.4          17.01          122.2
      0.86              -41.06          35.45          57.71          52.85         -4.419        -0.1988         -172.0         -7.209         -123.1          17.06          122.1
    0.8897              -41.01          35.39          57.75          52.86         -4.446        -0.1943         -171.8         -7.035         -122.9          17.12          122.0
    0.9194              -40.97          35.31          57.78          52.86         -4.477         -0.189         -171.6         -6.836         -122.6          17.19          121.8
     0.949              -40.91          35.23          57.83          52.87         -4.512         -0.183         -171.3         -6.607         -122.3          17.27          121.6
    0.9787              -40.84          35.13          57.88          52.88         -4.553         -0.176         -171.0          -6.34         -121.9          17.37          121.4
     1.008              -40.77          35.02          57.93          52.89         -4.601        -0.1678         -170.6         -6.028         -121.5          17.48          121.2
     1.038              -40.68          34.89           58.0          52.89         -4.658        -0.1582         -170.1          -5.66         -121.0          17.61          120.9
     1.068              -40.57          34.73          58.08          52.91         -4.725        -0.1467         -169.6         -5.222         -120.3          17.76          120.6
     1.097              -40.45          34.54          58.18          52.92         -4.805        -0.1329         -169.0         -4.698         -119.6          17.95          120.2
     1.127              -40.29          34.31           58.3          52.94         -4.903        -0.1163         -168.2         -4.064         -118.7          18.17          119.7
     1.157               -40.1          34.02          58.45          52.96         -5.022       -0.09597         -167.2         -3.289         -117.6          18.45          119.1
     1.186              -39.87          33.68          58.63          52.98         -5.169       -0.07088         -166.1         -2.332         -116.3          18.79          118.4
     1.216              -39.58          33.24          58.85          53.01         -5.352        -0.0396         -164.6          -1.14         -114.6          19.21          117.5
     1.246              -39.21           32.7          59.13          53.05         -5.583     -0.0001936         -162.8         0.3624         -112.5          19.74          116.4
     1.275              -38.75           32.0          59.49           53.1         -5.877         0.0499         -160.4          2.272         -109.8          20.42          115.0
     1.305              -38.16          31.11          59.94          53.16         -6.252          0.114         -157.4          4.717         -106.4          21.29          113.1
     1.335              -37.39          29.97          60.53          53.24         -6.735         0.1963         -153.6          7.854         -102.0           22.4          110.8
     1.364              -36.42          28.51          61.28          53.35         -7.351         0.3014         -148.7          11.86         -96.35          23.82          107.8
     1.394              -35.19          26.68          62.22          53.48         -8.125         0.4336         -142.5           16.9         -89.28           25.6          104.0
     1.424               -33.7          24.45          63.37          53.64         -9.069         0.5946         -135.0          23.04         -80.65          27.78          99.36
     1.453              -31.97          21.86           64.7          53.82         -10.16         0.7813         -126.3          30.16         -70.66           30.3          94.01
     1.483               -30.1          19.06          66.14          54.02         -11.35         0.9835         -116.8          37.86         -59.83          33.03          88.22
     1.512              -28.22          16.26          67.59          54.22         -12.53          1.186         -107.4          45.57         -49.01          35.76          82.43
     1.542              -26.49          13.67          68.92           54.4         -13.63          1.372         -98.65          52.68         -39.01          38.28          77.08
     1.572               -25.0          11.44          70.07          54.56         -14.57          1.533         -91.13          58.82         -30.39          40.46          72.47
     1.601              -23.77          9.606          71.01          54.69         -15.34          1.665         -84.95          63.86         -23.31          42.25          68.68
     1.631               -22.8          8.149          71.76          54.79         -15.96          1.771         -80.04          67.87         -17.69          43.67          65.67
     1.661              -22.03          7.008          72.34          54.87         -16.44          1.853          -76.2          71.01         -13.28          44.78          63.31
      1.69              -21.44          6.119           72.8          54.94         -16.82          1.917          -73.2          73.45         -9.847          45.64          61.47
      1.72              -20.98          5.425          73.16          54.99         -17.11          1.967         -70.86          75.36         -7.164          46.32          60.04
      1.75              -20.61          4.879          73.44          55.02         -17.34          2.007         -69.02          76.86         -5.054          46.85          58.91
     1.779              -20.32          4.445          73.66          55.06         -17.53          2.038         -67.56          78.05         -3.379          47.27          58.01
     1.809              -20.09          4.097          73.84          55.08         -17.67          2.063         -66.39          79.01         -2.036          47.61          57.29
     1.839               -19.9          3.815          73.99           55.1         -17.79          2.083         -65.44          79.79        -0.9474          47.89          56.71
     1.868              -19.74          3.585          74.11          55.12         -17.89            2.1         -64.66          80.42       -0.05644          48.11          56.24
     1.898              -19.62          3.394           74.2          55.13         -17.97          2.114         -64.02          80.94           0.68           48.3          55.84
